<svg height="472pt" viewBox="-20 0 472 472" width="472pt" xmlns="http://www.w3.org/2000/svg"><path d="m432 112v192h-432v-192c.0507812-17.652344 14.347656-31.949219 32-32h368c17.671875 0 32 14.328125 32 32zm0 0" fill="#78b9eb"/><path d="m432 112v192h-256l224-224c17.671875 0 32 14.328125 32 32zm0 0" fill="#5aaae7"/><path d="m352 48v208c-.027344 8.824219-7.175781 15.972656-16 16h-240c-8.824219-.027344-15.972656-7.175781-16-16v-208zm0 0" fill="#ffde55"/><path d="m304 432v32h-176v-32zm0 0" fill="#787680"/><path d="m152 368h128v64h-128zm0 0" fill="#898890"/><path d="m432 304v32c0 17.671875-14.328125 32-32 32h-368c-17.671875 0-32-14.328125-32-32v-32zm0 0" fill="#acabb1"/><path d="m224 152c0 4.398438-8 40-8 40s-8-35.601562-8-40c0-4.417969 3.582031-8 8-8s8 3.582031 8 8zm0 0" fill="#cd2a00"/><path d="m298.238281 240h-164.476562c-2.851563-.019531-5.480469-1.542969-6.914063-4.011719-1.429687-2.464843-1.449218-5.503906-.046875-7.988281l82.238281-143.839844c1.421876-2.507812 4.078126-4.054687 6.960938-4.054687s5.539062 1.546875 6.960938 4.054687l82.238281 143.839844c1.402343 2.484375 1.382812 5.523438-.046875 7.988281-1.433594 2.46875-4.0625 3.992188-6.914063 4.011719zm0 0" fill="#ffb655"/><path d="m352 16v32h-272v-32c.027344-8.824219 7.175781-15.9726562 16-16h240c8.824219.0273438 15.972656 7.175781 16 16zm0 0" fill="#ff7956"/><path d="m160 24c0 4.417969-3.582031 8-8 8s-8-3.582031-8-8 3.582031-8 8-8 8 3.582031 8 8zm0 0" fill="#ffa733"/><path d="m136 24c0 4.417969-3.582031 8-8 8s-8-3.582031-8-8 3.582031-8 8-8 8 3.582031 8 8zm0 0" fill="#00ccb3"/><path d="m112 24c0 4.417969-3.582031 8-8 8s-8-3.582031-8-8 3.582031-8 8-8 8 3.582031 8 8zm0 0" fill="#ffd422"/><path d="m152 368h128v16h-128zm0 0" fill="#787680"/><path d="m376 328h32v16h-32zm0 0" fill="#898890"/><path d="m104 456h224v16h-224zm0 0" fill="#57565c"/><g fill="#ff6243"><path d="m216 200c-3.742188 0-6.988281-2.59375-7.808594-6.246094-3.054687-13.609375-8.191406-37.136718-8.191406-41.753906 0-8.835938 7.164062-16 16-16s16 7.164062 16 16c0 4.617188-5.136719 28.144531-8.191406 41.753906-.820313 3.652344-4.066406 6.246094-7.808594 6.246094zm0 0"/><path d="m224 216c0 4.417969-3.582031 8-8 8s-8-3.582031-8-8 3.582031-8 8-8 8 3.582031 8 8zm0 0"/></g></svg>