<?xml version="1.0" encoding="utf-8"?>
<!-- Generator: Adobe Illustrator 16.0.0, SVG Export Plug-In . SVG Version: 6.00 Build 0)  -->
<!DOCTYPE svg PUBLIC "-//W3C//DTD SVG 1.1//EN" "http://www.w3.org/Graphics/SVG/1.1/DTD/svg11.dtd">
<svg version="1.1" id="Layer_1" xmlns="http://www.w3.org/2000/svg" xmlns:xlink="http://www.w3.org/1999/xlink" x="0px" y="0px"
	 width="600px" height="400px" viewBox="0 0 600 400" enable-background="new 0 0 600 400" xml:space="preserve">
<title>error-404-colour</title>
<path opacity="0.4" fill="#95AFC0" d="M390.048,46.488c22.097,19.853,36.559,47.553,59.775,87.366
	c23.324,39.813,55.488,91.737,43.29,122.692c-12.197,30.955-68.972,40.934-122.579,61.233s-104.077,50.803-150.506,44.856
	c-46.428-5.946-88.814-48.333-99.476-95.213c-10.769-46.993,10.091-98.47,25.117-145.35c14.918-46.875,24.002-89.174,50.131-108.324
	c26.128-19.15,69.311-15.036,105.874-7.076C338.233,14.732,367.951,26.639,390.048,46.488z"/>
<path fill="#FF7979" d="M188.214,380.451h-15.369v18.203H150.31v-18.203h-46.104v-6.875l53.269-72.802h15.37v60.28h15.369V380.451z
	 M150.31,361.055v-22.682l-16.111,22.682H150.31z"/>
<path fill="#FF7979" d="M201.045,349.865c0-28.201,8.205-50.436,36.828-50.436c28.48,0,36.406,22.234,36.406,50.436
	c0,28.053-7.906,50.135-36.406,50.135C209.25,400,201.045,377.917,201.045,349.865z M251.774,349.865
	c0-17.01-3.285-30.141-13.877-30.141c-10.744,0-14.471,13.131-14.471,30.141c0,16.857,3.727,29.693,14.471,29.693
	C248.489,379.577,251.774,366.722,251.774,349.865L251.774,349.865z"/>
<path fill="#FF7979" d="M366.964,380.451h-15.369v18.203h-22.529v-18.203h-46.119v-6.875l53.278-72.802h15.37v60.28h15.369V380.451z
	 M329.065,361.055v-22.682l-16.116,22.682H329.065z"/>
<rect x="367.769" y="373.832" fill="#DE8E68" width="8.353" height="7.07"/>
<polygon fill="#130F40" points="376.907,379.798 376.907,386.869 357.035,386.869 357.035,384.296 367.371,379.798 "/>
<rect x="237.937" y="287.089" fill="#DE8E68" width="8.353" height="7.071"/>
<polygon fill="#130F40" points="247.075,293.055 247.075,300.126 227.208,300.126 227.208,297.558 237.544,293.055 "/>
<path fill="#56CAD8" d="M367.479,198.485c0.423,4.018,9.296,177.213,9.296,177.213h-9.296l-45.2-163.075L367.479,198.485z"/>
<path fill="#74D5DE" d="M372.253,179.404c0,23.521-8.647,44.685-26.153,44.685c-24.032,0-55.847-15.32-64.602-23.968
	c-2.186,6.462-33.181,87.857-33.181,87.857h-12.836c0,0,8.226-94.771,23.645-119.078c5.072-6.757,46.467-5.067,67.381,0
	C347.42,173.967,372.253,179.404,372.253,179.404z"/>
<path fill="#D37C59" d="M310.179,42.358c0.302-1.504,1.683-2.543,3.211-2.416c1.881,0.133,4.955,5.102,4.955,9.123
	c0,4.022-1.135,5.534-0.791,8.456s7.783,42.539,7.783,44.955c1.876,0.133,8.589-0.805,8.589-0.805l-4.699,18.925h-13.681
	l-8.839-76.226L310.179,42.358z"/>
<path d="M323.301,49.105l-2.883,11.647c0,0-28.437-3.305-31.54-4.071c-3.104-0.766,1.571-20.024,4.759-19.239
	C296.823,38.228,323.301,49.105,323.301,49.105z"/>
<path fill="#FED385" d="M349.355,83.561c36.376,0,27.405,93.981,23.157,97.497c-4.247,3.516-49.473-8.348-53.229-13.582
	C315.527,162.241,322.677,83.561,349.355,83.561z"/>
<path fill="#DE8E68" d="M336.372,107.421c-1.999,0.678-13.72,5.249-13.72,5.249c-0.196-2.357-9.207-49.104-9.762-51.967
	c1.137-2.857,1.699-5.911,1.654-8.986c0-7.675-3.118-13.906-6.963-13.906s-6.958,6.231-6.958,13.906
	c-0.055,3.212,0.564,6.4,1.816,9.359c-0.432,5.843-4.312,61.326,3.604,69.237c8.348,8.348,28.643,0.819,40.978-4.788
	C349.664,124.613,346.065,104.799,336.372,107.421z"/>
<rect x="319.501" y="52.85" transform="matrix(-0.9665 -0.2567 0.2567 -0.9665 621.527 192.1596)" width="7.612" height="5.318"/>
<path fill="#FED892" d="M372.537,100.826c5.544,10.764-16.41,30.154-22.484,28.711s-15.871-23.118-14.039-27.007
	C337.844,98.641,367.145,90.352,372.537,100.826z"/>
<path fill="#D37C59" d="M351.584,92.67c0,1.821-11.112,2.283-11.112,0V71.693h11.112V92.67z"/>
<ellipse fill="#DC8E6C" cx="342.013" cy="60.413" rx="14.506" ry="23.457"/>
<path d="M331.147,44.871c-0.226,3.431,1.417,6.716,4.296,8.594c4.326,2.946,7.41,1.645,10.582,4.419
	c1.675,1.675,5.775,4.911,5.814,9.909c0,3.698,1.213,5.563,2.278,5.563s3.874-0.736,5.682-0.736
	c17.746,0,38.586,18.321,78.567,18.321c20.884,0,53.656-5.27,53.656-35.939c0-16.563-5.961-36.578-37.472-36.578
	c-20.01,0-34.029,9.82-50.47,9.82c-21.115,0-29.257-7.646-43.846-7.646c-10.39,0-33.773,6.021-33.773,21.793
	c0,5.991,1.876,7.729,2.455,8.038C329.104,49.773,330.249,46.374,331.147,44.871z"/>
<circle fill="#DC8E6C" cx="350.346" cy="65.967" r="3.702"/>
</svg>
